P3
20 15
255
255 255 255 254 254 254 253 253 252 255 255 255 250 252 255 180 184 191 127 123 116 109 92 62 113 85 37 121 88 29 121 88 29 113 85 37 109 92 62 127 123 115 180 184 191 249 252 255 255 255 255 253 253 252 254 254 254 255 255 255 
254 254 254 255 255 254 255 255 255 185 189 195 109 98 79 145 105 36 203 144 38 238 170 50 252 181 57 255 185 59 255 185 59 252 181 57 238 170 50 204 144 39 145 105 36 109 98 79 185 188 195 255 255 255 255 255 254 254 254 254 
255 255 254 255 255 255 135 136 139 111 80 24 225 158 41 255 187 60 255 185 61 250 180 59 246 178 57 245 177 57 245 177 57 246 178 57 250 180 59 255 185 61 255 187 60 225 158 41 112 80 25 135 136 139 255 255 255 255 255 254 
255 255 255 136 138 142 115 77 12 255 187 59 254 184 62 253 183 59 251 181 58 246 177 57 247 178 57 247 178 57 247 178 57 247 178 57 246 177 57 250 180 58 254 183 59 254 184 62 255 188 59 123 84 16 136 139 142 255 255 255 
189 193 199 88 62 22 249 175 52 250 181 60 244 176 56 201 144 45 224 161 50 252 181 58 246 177 57 247 178 57 247 178 57 246 177 57 251 181 58 227 163 52 200 143 43 244 175 55 248 180 59 255 186 57 97 72 27 187 191 198 
88 86 83 175 118 27 251 180 59 255 188 61 129 91 25 6 14 27 82 72 54 227 162 47 252 182 59 246 177 57 246 177 57 250 180 58 234 168 54 37 27 8 32 39 52 147 109 43 255 183 57 255 186 62 194 137 37 89 87 83 
66 51 25 220 152 43 242 174 55 255 185 60 179 129 40 61 46 20 121 90 36 241 174 54 248 179 58 246 178 57 246 178 57 248 179 57 243 175 56 111 80 26 67 52 26 183 133 44 255 183 58 246 178 57 242 174 54 72 56 28 
71 50 15 226 157 46 241 172 54 246 178 57 255 189 61 255 189 59 253 181 56 247 178 57 245 177 57 246 178 57 246 178 57 245 177 57 247 178 57 255 184 59 255 188 58 255 188 60 245 177 57 247 178 57 250 180 58 79 57 19 
67 51 26 218 150 42 233 164 50 255 184 59 201 144 46 186 134 43 255 186 60 255 187 60 254 183 59 251 181 58 251 181 58 254 183 59 255 187 60 255 186 59 186 134 43 201 145 47 254 183 59 247 178 57 242 174 54 72 56 28 
88 86 83 175 118 27 235 164 50 243 174 54 222 160 52 115 83 27 123 89 28 181 130 42 217 156 50 230 166 53 230 166 53 217 156 50 181 131 42 123 89 28 116 84 27 220 159 51 249 179 57 255 187 62 194 137 37 89 87 84 
189 192 199 89 64 23 234 161 44 226 158 48 248 178 56 255 186 60 201 145 46 149 107 34 128 92 29 127 91 29 127 91 29 129 92 29 149 108 34 201 145 46 255 184 59 251 181 58 246 178 59 255 186 57 97 72 27 187 191 198 
255 255 255 137 139 142 111 72 10 237 163 46 231 161 50 235 167 52 255 185 59 255 189 61 245 174 54 235 166 51 234 166 51 244 173 54 255 188 60 255 184 59 243 175 56 253 183 61 255 189 59 123 84 16 137 139 142 255 255 255 
255 255 254 255 255 255 136 137 140 102 70 19 203 136 29 237 164 47 238 167 52 239 171 54 243 175 56 246 177 57 246 178 57 246 178 58 248 179 59 255 184 61 255 187 59 222 155 39 111 80 24 135 137 140 255 255 255 255 255 254 
254 254 254 255 255 254 255 255 255 186 189 196 106 95 78 131 92 29 182 122 28 214 146 37 230 159 45 238 166 49 241 169 51 238 167 49 224 156 43 190 131 32 135 95 30 106 95 78 185 188 195 255 255 255 255 255 254 254 254 254 
255 255 255 254 254 255 253 253 252 255 255 255 250 253 255 181 185 191 126 122 115 104 87 60 103 76 32 109 76 23 109 75 23 102 75 31 102 85 58 124 120 114 180 184 191 250 253 255 255 255 255 253 253 252 254 254 254 255 255 255 
