P2
20 15
255
255 254 253 255 252 183 123 94 88 91 91 88 94 123 183 252 255 253 254 255 
254 255 255 188 99 108 149 175 187 191 191 188 175 149 108 99 188 255 255 254 
255 255 136 82 164 194 191 186 183 183 183 183 186 191 194 164 83 136 255 255 
255 138 80 194 190 189 187 183 184 184 184 184 183 186 189 190 195 88 138 255 
192 65 182 187 182 150 166 188 183 184 184 183 187 169 148 181 186 192 74 191 
86 124 187 194 94 13 73 167 188 183 183 187 174 27 39 112 189 192 142 87 
52 158 180 191 133 47 93 179 185 184 184 185 181 82 53 137 190 184 180 57 
52 163 177 183 196 196 188 184 183 184 184 183 184 190 194 195 182 184 186 59 
52 156 170 190 149 138 193 194 189 187 187 189 194 192 139 150 189 184 180 57 
86 123 171 180 165 86 92 135 162 172 172 162 135 92 86 164 185 193 142 87 
192 66 168 164 184 192 150 111 95 94 94 95 111 150 190 187 184 192 74 191 
255 139 75 171 169 173 191 195 180 172 172 180 194 190 181 189 195 88 138 255 
255 255 137 73 142 171 174 177 181 183 184 184 185 191 193 161 82 137 255 255 
254 255 255 189 96 96 128 153 166 173 176 174 162 136 99 96 188 255 255 254 
255 254 253 255 253 185 123 88 78 79 78 78 87 121 184 252 255 253 254 255 
